<svg preserveAspectRatio="none" overflow="visible" style="display: block;" width="32" height="32" viewBox="0 0 32 32" fill="none" xmlns="http://www.w3.org/2000/svg">
<g id=".Logo Icon">
<circle id="Ellipse 4" cx="16" cy="16" r="16" fill="#285596"/>
<g id="Group 6">
<path id="Intersect" d="M16.0002 11.3684C21.0475 11.3684 25.7087 13.0901 29.4737 16C25.7087 18.9099 21.0475 20.6316 16.0002 20.6316C10.9528 20.6316 6.29135 18.91 2.52632 16C6.29135 13.09 10.9528 11.3684 16.0002 11.3684Z" fill="#F6EDD6"/>
<g id="Mask group">
<mask id="mask0_0_50" style="mask-type:alpha" maskUnits="userSpaceOnUse" x="2" y="11" width="28" height="10">
<path id="Intersect_2" d="M16.0002 11.3684C21.0475 11.3684 25.7087 13.0901 29.4737 16C25.7087 18.9099 21.0475 20.6316 16.0002 20.6316C10.9528 20.6316 6.29135 18.91 2.52632 16C6.29135 13.09 10.9528 11.3684 16.0002 11.3684Z" fill="#E4D6B1"/>
</mask>
<g mask="url(#mask0_0_50)">
<circle id="Ellipse 5" cx="16" cy="16" r="6.73684" fill="#0F0F11"/>
</g>
</g>
</g>
</g>
</svg>
